<?xml version="1.0" encoding="UTF-8"?>
<svg xmlns="http://www.w3.org/2000/svg" viewBox="0 0 4619.82 1457.35">
  <defs>
    <style>
      .cls-1 {
        fill: none;
      }

      .cls-2 {
        fill: #082720;
      }
    </style>
  </defs>
  <g id="Layer_4">
    <g>
      <rect class="cls-1" x="4039.09" y="0" width="580.73" height="1437.05"/>
      <path class="cls-2" d="M4131.81,1238.33v-123.12h196.99V332.42h-196.99v-123.12h355.11v1029.03h-355.11Z"/>
    </g>
  </g>
  <g id="Layer_2">
    <g>
      <rect class="cls-1" x="655.59" y="172.05" width="3318.34" height="980"/>
      <path class="cls-2" d="M692.29,1012.55v-128h8c20,6,44,9,71,9,69,0,99-29,99-98v-462h140v471c0,145-83,218-232,218-31,0-59-3-86-10Z"/>
      <path class="cls-2" d="M1403.27,1024.55c-82,0-149-26-200-78s-77-119-77-202,26-149,77-201,118-78,200-78,149,26,200,78,77,119,77,201-26,150-77,202-118,78-200,78ZM1403.27,903.55c43,0,78-15,105-46,26-30,39-68,39-113s-13-82-40-113c-27-30-61-45-104-45s-77,15-104,45c-27,31-40,68-40,113s13,83,40,113c26,31,61,46,104,46Z"/>
      <path class="cls-2" d="M1924.26,1010.55l-211-524v-7h145l137,382,136-382h145v7l-211,524h-141Z"/>
      <path class="cls-2" d="M2331.26,862.55c0-117,89-180,217-180,51,0,95,8,134,24v-18c0-75-39-105-119-105-69,0-132,17-188,50h-7v-120c62-32,134-48,217-48,157,0,230,70,230,226v319h-133v-71c-32,55-101,85-174,85-103,0-177-63-177-162ZM2682.26,795.55v-3c-31-11-69-17-112-17-65,0-112,23-112,78,0,43,33,65,81,65,80,0,143-50,143-123Z"/>
      <path class="cls-2" d="M2972.25,993.55c-34-35-34-92,0-126,50-55,155-13,150,63,0,25-8,46-25,63-34,35-91,35-125,0Z"/>
      <path class="cls-2" d="M3181.25,1167.55v-107h8c7,1,16,2,28,2,34,0,51-17,51-51V479.55h133v543c0,96-54,152-145,152-27,0-52-2-75-7ZM3277.25,418.55c-32-29-32-83,0-112,31-28,85-28,116,0,31,29,31,83,0,112s-85,29-116,0Z"/>
      <path class="cls-2" d="M3527.24,976.55v-120h7c53,35,115,52,184,52,45,0,83-15,83-51,0-32-27-42-57-50l-81-20c-87-23-143-73-143-152,0-109,88-170,209-170,70,0,130,16,179,48v120h-8c-48-35-105-52-171-52-44,0-79,15-79,50,0,28,20,39,57,48l80,21c85,21,144,75,144,152,0,115-86,172-213,172-72,0-136-16-191-48Z"/>
    </g>
  </g>
  <g id="Layer_3">
    <g>
      <rect class="cls-1" y="0" width="589.02" height="1437.05"/>
      <path class="cls-2" d="M137.05,1238.33V209.3h355.11v123.12h-195.7v782.79h195.7v123.12H137.05Z"/>
    </g>
  </g>
</svg>